<mxfile host="65bd71144e">
    <diagram id="EcoZense_Class_Diagram" name="EcoZense Class Diagram">
        <mxGraphModel dx="1563" dy="1785" grid="1" gridSize="10" guides="1" tooltips="1" connect="1" arrows="1" fold="1" page="1" pageScale="1" pageWidth="827" pageHeight="1169" background="none" math="0" shadow="1">
            <root>
                <mxCell id="0"/>
                <mxCell id="1" parent="0"/>
                <mxCell id="Lokasi" value="Lokasi" style="swimlane;fontStyle=0;childLayout=stackLayout;horizontal=1;startSize=20;horizontalStack=0;resizeParent=1;resizeParentMax=0;resizeLast=0;collapsible=1;marginBottom=0;" parent="1" vertex="1">
                    <mxGeometry x="-540" y="10" width="170" height="196" as="geometry"/>
                </mxCell>
                <mxCell id="Lokasi_Attributes" value="- lokasi_id: int&#xa;- nama_lokasi: string&#xa;- alamat: string&#xa;- kota: string&#xa;- kode_pos: int&#xa;- created_at: timestamp&#xa;- updated_at: timestamp" style="text;strokeColor=none;fillColor=none;align=left;verticalAlign=top;spacingLeft=4;spacingRight=4;overflow=hidden;rotatable=0;points=[[0,0.5],[1,0.5]];portConstraint=eastwest;" parent="Lokasi" vertex="1">
                    <mxGeometry y="20" width="170" height="110" as="geometry"/>
                </mxCell>
                <mxCell id="4" value="" style="endArrow=none;html=1;exitX=0.001;exitY=-0.006;exitDx=0;exitDy=0;exitPerimeter=0;" parent="Lokasi" source="Lokasi_Operations" edge="1">
                    <mxGeometry width="50" height="50" relative="1" as="geometry">
                        <mxPoint y="123.51999999999998" as="sourcePoint"/>
                        <mxPoint x="170" y="130" as="targetPoint"/>
                    </mxGeometry>
                </mxCell>
                <mxCell id="Lokasi_Operations" value="+ addLocation() &#xa;+ updateLocation() &#xa;+ deleteLocation() &#xa;+ getLocationDetails()" style="text;strokeColor=none;fillColor=none;align=left;verticalAlign=top;spacingLeft=4;spacingRight=4;overflow=hidden;rotatable=0;points=[[0,0.5],[1,0.5]];portConstraint=eastwest;" parent="Lokasi" vertex="1">
                    <mxGeometry y="130" width="170" height="66" as="geometry"/>
                </mxCell>
                <mxCell id="Artikel" value="Artikel" style="swimlane;fontStyle=0;childLayout=stackLayout;horizontal=1;startSize=26;horizontalStack=0;resizeParent=1;resizeParentMax=0;resizeLast=0;collapsible=1;marginBottom=0;" parent="1" vertex="1">
                    <mxGeometry x="230" y="-90" width="170" height="230" as="geometry"/>
                </mxCell>
                <mxCell id="Artikel_Attributes" value="- artikel_id: int&#xa;- judul: string&#xa;- konten: text&#xa;- tanggal_publikasi: datetime&#xa;- user_id: int&#xa;- kategori: enum&#xa;- created_at: timestamp&#xa;- updated_at: timestamp" style="text;strokeColor=none;fillColor=none;align=left;verticalAlign=top;spacingLeft=4;spacingRight=4;overflow=hidden;rotatable=0;points=[[0,0.5],[1,0.5]];portConstraint=eastwest;" parent="Artikel" vertex="1">
                    <mxGeometry y="26" width="170" height="124" as="geometry"/>
                </mxCell>
                <mxCell id="62" value="" style="endArrow=none;html=1;entryX=1.003;entryY=-0.003;entryDx=0;entryDy=0;entryPerimeter=0;exitX=-0.007;exitY=1.001;exitDx=0;exitDy=0;exitPerimeter=0;" parent="Artikel" source="Artikel_Attributes" target="Artikel_Operations" edge="1">
                    <mxGeometry width="50" height="50" relative="1" as="geometry">
                        <mxPoint y="110" as="sourcePoint"/>
                        <mxPoint x="50" y="110" as="targetPoint"/>
                    </mxGeometry>
                </mxCell>
                <mxCell id="Artikel_Operations" value="+ createArticle() &#xa;+ updateArticle() &#xa;+ deleteArticle() &#xa;+ publishArticle() &#xa;+ getArticleDetails()" style="text;strokeColor=none;fillColor=none;align=left;verticalAlign=top;spacingLeft=4;spacingRight=4;overflow=hidden;rotatable=0;points=[[0,0.5],[1,0.5]];portConstraint=eastwest;" parent="Artikel" vertex="1">
                    <mxGeometry y="150" width="170" height="80" as="geometry"/>
                </mxCell>
                <mxCell id="76" style="edgeStyle=orthogonalEdgeStyle;html=1;exitX=0.992;exitY=0.792;exitDx=0;exitDy=0;endArrow=block;endFill=1;endSize=12;exitPerimeter=0;rounded=0;curved=0;" parent="1" source="Produk_Attributes" target="69" edge="1">
                    <mxGeometry relative="1" as="geometry"/>
                </mxCell>
                <mxCell id="Produk" value="Produk" style="swimlane;fontStyle=0;childLayout=stackLayout;horizontal=1;startSize=26;horizontalStack=0;resizeParent=1;resizeParentMax=0;resizeLast=0;collapsible=1;marginBottom=0;" parent="1" vertex="1">
                    <mxGeometry x="-20" y="330" width="170" height="270" as="geometry"/>
                </mxCell>
                <mxCell id="Produk_Attributes" value="- produk_id: int&#xa;- nama_produk: string&#xa;- kategori: enum&#xa;- status_ketersediaan: enum&#xa;- harga: decimal&#xa;- user_id: int&#xa;- suka: int&#xa;- deskripsi: text&#xa;- created_at: timestamp&#xa;- updated_at: timestamp" style="text;strokeColor=none;fillColor=none;align=left;verticalAlign=top;spacingLeft=4;spacingRight=4;overflow=hidden;rotatable=0;points=[[0,0.5],[1,0.5]];portConstraint=eastwest;" parent="Produk" vertex="1">
                    <mxGeometry y="26" width="170" height="154" as="geometry"/>
                </mxCell>
                <mxCell id="7" value="" style="endArrow=none;html=1;entryX=1;entryY=-0.001;entryDx=0;entryDy=0;entryPerimeter=0;exitX=-0.011;exitY=0.99;exitDx=0;exitDy=0;exitPerimeter=0;" parent="Produk" source="Produk_Attributes" target="Produk_Operations" edge="1">
                    <mxGeometry width="50" height="50" relative="1" as="geometry">
                        <mxPoint y="120" as="sourcePoint"/>
                        <mxPoint x="175" y="120" as="targetPoint"/>
                    </mxGeometry>
                </mxCell>
                <mxCell id="Produk_Operations" value="+ addProduct() &#xa;+ updateProduct() &#xa;+ deleteProduct() &#xa;+ updateStock() &#xa;+ getProductDetails()" style="text;strokeColor=none;fillColor=none;align=left;verticalAlign=top;spacingLeft=4;spacingRight=4;overflow=hidden;rotatable=0;points=[[0,0.5],[1,0.5]];portConstraint=eastwest;" parent="Produk" vertex="1">
                    <mxGeometry y="180" width="170" height="90" as="geometry"/>
                </mxCell>
                <mxCell id="Transaksi" value="Transaksi" style="swimlane;fontStyle=0;childLayout=stackLayout;horizontal=1;startSize=26;horizontalStack=0;resizeParent=1;resizeParentMax=0;resizeLast=0;collapsible=1;marginBottom=0;" parent="1" vertex="1">
                    <mxGeometry x="-270" y="160" width="210" height="320" as="geometry"/>
                </mxCell>
                <mxCell id="Transaksi_Attributes" value="- transaksi_id: int&#xa;- user_id: int&#xa;- lokasi_id: int&#xa;- produk_id: int&#xa;- jumlah_produk: int&#xa;- harga_total: decimal&#xa;- poin_used: int&#xa;- tanggal: datetime&#xa;- status: enum&#xa;- pay_method: enum&#xa;- bukti_transfer: string&#xa;- created_at: timestamp&#xa;- updated_at: timestamp" style="text;strokeColor=none;fillColor=none;align=left;verticalAlign=top;spacingLeft=4;spacingRight=4;overflow=hidden;rotatable=0;points=[[0,0.5],[1,0.5]];portConstraint=eastwest;" parent="Transaksi" vertex="1">
                    <mxGeometry y="26" width="210" height="194" as="geometry"/>
                </mxCell>
                <mxCell id="5" value="" style="endArrow=none;html=1;entryX=1.002;entryY=1.004;entryDx=0;entryDy=0;entryPerimeter=0;exitX=-0.003;exitY=0.009;exitDx=0;exitDy=0;exitPerimeter=0;" parent="Transaksi" source="Transaksi_Operations" target="Transaksi_Attributes" edge="1">
                    <mxGeometry width="50" height="50" relative="1" as="geometry">
                        <mxPoint y="160" as="sourcePoint"/>
                        <mxPoint x="170.33999999999997" y="150" as="targetPoint"/>
                    </mxGeometry>
                </mxCell>
                <mxCell id="Transaksi_Operations" value="+ createTransaction() &#xa;+ updateStatus() &#xa;+ calculateTotal()&#xa;+ processPayment()&#xa;+ getTransactionDetails()&#xa;+ verifyTransferProof()" style="text;strokeColor=none;fillColor=none;align=left;verticalAlign=top;spacingLeft=4;spacingRight=4;overflow=hidden;rotatable=0;points=[[0,0.5],[1,0.5]];portConstraint=eastwest;" parent="Transaksi" vertex="1">
                    <mxGeometry y="220" width="210" height="100" as="geometry"/>
                </mxCell>
                <mxCell id="Poin" value="Poin" style="swimlane;fontStyle=0;childLayout=stackLayout;horizontal=1;startSize=26;horizontalStack=0;resizeParent=1;resizeParentMax=0;resizeLast=0;collapsible=1;marginBottom=0;" parent="1" vertex="1">
                    <mxGeometry x="-270" y="-120" width="180" height="210" as="geometry"/>
                </mxCell>
                <mxCell id="Poin_Attributes" value="- poin_id: int&#xa;- user_id: int&#xa;- lokasi_id: int&#xa;- jumlah_poin: int&#xa;- created_at: timestamp&#xa;- updated_at: timestamp" style="text;strokeColor=none;fillColor=none;align=left;verticalAlign=top;spacingLeft=4;spacingRight=4;overflow=hidden;rotatable=0;points=[[0,0.5],[1,0.5]];portConstraint=eastwest;" parent="Poin" vertex="1">
                    <mxGeometry y="26" width="180" height="104" as="geometry"/>
                </mxCell>
                <mxCell id="6" value="" style="endArrow=none;html=1;entryX=1.002;entryY=0.908;entryDx=0;entryDy=0;entryPerimeter=0;exitX=-0.008;exitY=0.899;exitDx=0;exitDy=0;exitPerimeter=0;" parent="Poin" source="Poin_Attributes" target="Poin_Attributes" edge="1">
                    <mxGeometry width="50" height="50" relative="1" as="geometry">
                        <mxPoint y="100" as="sourcePoint"/>
                        <mxPoint x="180" y="100" as="targetPoint"/>
                    </mxGeometry>
                </mxCell>
                <mxCell id="Poin_Operations" value="+ addPoints() &#xa;+ usePoints() &#xa;+ getPointBalance()&#xa;+ transferPoints() &#xa;+ getPointHistory()" style="text;strokeColor=none;fillColor=none;align=left;verticalAlign=top;spacingLeft=4;spacingRight=4;overflow=hidden;rotatable=0;points=[[0,0.5],[1,0.5]];portConstraint=eastwest;" parent="Poin" vertex="1">
                    <mxGeometry y="130" width="180" height="80" as="geometry"/>
                </mxCell>
                <mxCell id="Feedback" value="Feedback" style="swimlane;fontStyle=0;childLayout=stackLayout;horizontal=1;startSize=26;horizontalStack=0;resizeParent=1;resizeParentMax=0;resizeLast=0;collapsible=1;marginBottom=0;" parent="1" vertex="1">
                    <mxGeometry x="210" y="180" width="210" height="190" as="geometry"/>
                </mxCell>
                <mxCell id="Feedback_Attributes" value="- feedback_id: int&#xa;- komentar: text&#xa;- user_id: int&#xa;- artikel_id: int&#xa;- created_at: timestamp" style="text;strokeColor=none;fillColor=none;align=left;verticalAlign=top;spacingLeft=4;spacingRight=4;overflow=hidden;rotatable=0;points=[[0,0.5],[1,0.5]];portConstraint=eastwest;" parent="Feedback" vertex="1">
                    <mxGeometry y="26" width="210" height="84" as="geometry"/>
                </mxCell>
                <mxCell id="65" value="" style="endArrow=none;html=1;exitX=0;exitY=0.996;exitDx=0;exitDy=0;exitPerimeter=0;entryX=0.997;entryY=1.006;entryDx=0;entryDy=0;entryPerimeter=0;" parent="Feedback" source="Feedback_Attributes" target="Feedback_Attributes" edge="1">
                    <mxGeometry width="50" height="50" relative="1" as="geometry">
                        <mxPoint y="100" as="sourcePoint"/>
                        <mxPoint x="210" y="100" as="targetPoint"/>
                        <Array as="points">
                            <mxPoint x="110" y="110"/>
                        </Array>
                    </mxGeometry>
                </mxCell>
                <mxCell id="Feedback_Operations" value="+ addFeedback() &#xa;+ updateFeedback() &#xa;+ deleteFeedback() &#xa;+ getFeedbackList()&#xa;+ getFeedbackDetails()" style="text;strokeColor=none;fillColor=none;align=left;verticalAlign=top;spacingLeft=4;spacingRight=4;overflow=hidden;rotatable=0;points=[[0,0.5],[1,0.5]];portConstraint=eastwest;" parent="Feedback" vertex="1">
                    <mxGeometry y="110" width="210" height="80" as="geometry"/>
                </mxCell>
                <mxCell id="ArtikelGambar" value="ArtikelGambar" style="swimlane;fontStyle=0;childLayout=stackLayout;horizontal=1;startSize=26;horizontalStack=0;resizeParent=1;resizeParentMax=0;resizeLast=0;collapsible=1;marginBottom=0;" parent="1" vertex="1">
                    <mxGeometry x="480" y="-85" width="220" height="200" as="geometry"/>
                </mxCell>
                <mxCell id="ArtikelGambar_Attributes" value="- gambar_id: int&#xa;- artikel_id: int&#xa;- file_path: string&#xa;- judul: string&#xa;- created_at: timestamp&#xa;- updated_ at: timestamp" style="text;strokeColor=none;fillColor=none;align=left;verticalAlign=top;spacingLeft=4;spacingRight=4;overflow=hidden;rotatable=0;points=[[0,0.5],[1,0.5]];portConstraint=eastwest;" parent="ArtikelGambar" vertex="1">
                    <mxGeometry y="26" width="220" height="94" as="geometry"/>
                </mxCell>
                <mxCell id="67" value="" style="endArrow=none;html=1;entryX=1.003;entryY=0.998;entryDx=0;entryDy=0;entryPerimeter=0;exitX=-0.001;exitY=1.006;exitDx=0;exitDy=0;exitPerimeter=0;" parent="ArtikelGambar" source="ArtikelGambar_Attributes" target="ArtikelGambar_Attributes" edge="1">
                    <mxGeometry width="50" height="50" relative="1" as="geometry">
                        <mxPoint y="99.44" as="sourcePoint"/>
                        <mxPoint x="160" y="99.44" as="targetPoint"/>
                    </mxGeometry>
                </mxCell>
                <mxCell id="ArtikelGambar_Operations" value="+ uploadImage() &#xa;+ deleteImage() &#xa;+ updateImage() &#xa;+ getImageDetails()&#xa;+ getImageList()" style="text;strokeColor=none;fillColor=none;align=left;verticalAlign=top;spacingLeft=4;spacingRight=4;overflow=hidden;rotatable=0;points=[[0,0.5],[1,0.5]];portConstraint=eastwest;" parent="ArtikelGambar" vertex="1">
                    <mxGeometry y="120" width="220" height="80" as="geometry"/>
                </mxCell>
                <mxCell id="User_Lokasi" value="" style="endArrow=block;endFill=1;endSize=12;html=1;exitX=0.001;exitY=0.251;exitDx=0;exitDy=0;exitPerimeter=0;" parent="1" edge="1">
                    <mxGeometry width="50" height="50" relative="1" as="geometry">
                        <mxPoint x="-24.819999999999936" y="121.69399999999996" as="sourcePoint"/>
                        <mxPoint x="-370" y="120" as="targetPoint"/>
                        <Array as="points"/>
                    </mxGeometry>
                </mxCell>
                <mxCell id="User_Artikel" value="" style="endArrow=block;endFill=1;endSize=12;html=1;entryX=0.006;entryY=0.829;entryDx=0;entryDy=0;exitX=1.001;exitY=0.17;exitDx=0;exitDy=0;exitPerimeter=0;rounded=0;edgeStyle=orthogonalEdgeStyle;entryPerimeter=0;" parent="1" source="58" target="Artikel_Attributes" edge="1">
                    <mxGeometry width="50" height="50" relative="1" as="geometry">
                        <mxPoint x="160" y="100" as="sourcePoint"/>
                        <mxPoint x="440" y="130" as="targetPoint"/>
                        <Array as="points">
                            <mxPoint x="193" y="66"/>
                            <mxPoint x="193" y="39"/>
                        </Array>
                    </mxGeometry>
                </mxCell>
                <mxCell id="User_Poin" value="" style="endArrow=block;endFill=1;endSize=12;html=1;exitX=0;exitY=0.185;exitDx=0;exitDy=0;entryX=1.001;entryY=0.019;entryDx=0;entryDy=0;exitPerimeter=0;entryPerimeter=0;rounded=0;edgeStyle=orthogonalEdgeStyle;" parent="1" source="58" target="Poin_Operations" edge="1">
                    <mxGeometry width="50" height="50" relative="1" as="geometry">
                        <mxPoint x="-19.52000000000021" y="111.90000000000009" as="sourcePoint"/>
                        <mxPoint x="440" y="290" as="targetPoint"/>
                    </mxGeometry>
                </mxCell>
                <mxCell id="User_Feedback" value="" style="endArrow=block;endFill=1;endSize=12;html=1;exitX=0.996;exitY=0.556;exitDx=0;exitDy=0;entryX=0;entryY=0.5;entryDx=0;entryDy=0;exitPerimeter=0;edgeStyle=orthogonalEdgeStyle;rounded=0;curved=0;" parent="1" source="58" target="Feedback" edge="1">
                    <mxGeometry width="50" height="50" relative="1" as="geometry">
                        <mxPoint x="140" y="130" as="sourcePoint"/>
                        <mxPoint x="40" y="450" as="targetPoint"/>
                    </mxGeometry>
                </mxCell>
                <mxCell id="Artikel_Feedback" value="" style="endArrow=block;endFill=1;endSize=12;html=1;exitX=0.5;exitY=0;exitDx=0;exitDy=0;" parent="1" source="Feedback" target="Artikel_Operations" edge="1">
                    <mxGeometry width="50" height="50" relative="1" as="geometry">
                        <mxPoint x="630" y="130" as="sourcePoint"/>
                        <mxPoint x="380" y="140" as="targetPoint"/>
                    </mxGeometry>
                </mxCell>
                <mxCell id="Artikel_ArtikelGambar" value="" style="endArrow=block;endFill=1;endSize=12;html=1;exitX=1;exitY=0.5;exitDx=0;exitDy=0;entryX=0;entryY=0.5;entryDx=0;entryDy=0;edgeStyle=orthogonalEdgeStyle;rounded=0;curved=0;" parent="1" source="Artikel" target="ArtikelGambar" edge="1">
                    <mxGeometry width="50" height="50" relative="1" as="geometry">
                        <mxPoint x="630" y="130" as="sourcePoint"/>
                        <mxPoint x="270" y="450" as="targetPoint"/>
                    </mxGeometry>
                </mxCell>
                <mxCell id="Lokasi_Transaksi" value="" style="endArrow=block;endFill=1;endSize=12;html=1;edgeStyle=orthogonalEdgeStyle;rounded=0;curved=0;" parent="1" edge="1">
                    <mxGeometry width="50" height="50" relative="1" as="geometry">
                        <mxPoint x="-370" y="110" as="sourcePoint"/>
                        <mxPoint x="-270" y="315" as="targetPoint"/>
                        <Array as="points">
                            <mxPoint x="-370" y="140"/>
                            <mxPoint x="-319" y="140"/>
                            <mxPoint x="-319" y="315"/>
                            <mxPoint x="-270" y="315"/>
                        </Array>
                    </mxGeometry>
                </mxCell>
                <mxCell id="Lokasi_Poin" value="" style="endArrow=block;endFill=1;endSize=12;html=1;entryX=0;entryY=0.5;entryDx=0;entryDy=0;edgeStyle=elbowEdgeStyle;rounded=0;curved=0;" parent="1" edge="1">
                    <mxGeometry width="50" height="50" relative="1" as="geometry">
                        <mxPoint x="-370" y="105" as="sourcePoint"/>
                        <mxPoint x="-270" y="-20" as="targetPoint"/>
                        <Array as="points">
                            <mxPoint x="-300" y="60"/>
                        </Array>
                    </mxGeometry>
                </mxCell>
                <mxCell id="57" value="User" style="swimlane;fontStyle=0;childLayout=stackLayout;horizontal=1;startSize=26;horizontalStack=0;resizeParent=1;resizeParentMax=0;resizeLast=0;collapsible=1;marginBottom=0;" parent="1" vertex="1">
                    <mxGeometry x="-25" width="180" height="260" as="geometry"/>
                </mxCell>
                <mxCell id="58" value="- user_id: int&#xa;- nama: string&#xa;- email: string&#xa;- password: string&#xa;- no_hp: string&#xa;- role: string&#xa;- lokasi_id: int&#xa;- created_at: timestamp&#xa;- updated_at: timestamp&#xa;&#xa;+ register() &#xa;+ login()&#xa;+ updateProfile() &#xa;+ changePassword() &#xa;+ getRole()&#xa;+ applyAsPengelola()" style="text;strokeColor=none;fillColor=none;align=left;verticalAlign=top;spacingLeft=4;spacingRight=4;overflow=hidden;rotatable=0;points=[[0,0.5],[1,0.5]];portConstraint=eastwest;" parent="57" vertex="1">
                    <mxGeometry y="26" width="180" height="234" as="geometry"/>
                </mxCell>
                <mxCell id="61" value="" style="endArrow=none;html=1;entryX=0.995;entryY=0.609;entryDx=0;entryDy=0;entryPerimeter=0;exitX=0;exitY=0.609;exitDx=0;exitDy=0;exitPerimeter=0;" parent="57" source="58" target="58" edge="1">
                    <mxGeometry width="50" height="50" relative="1" as="geometry">
                        <mxPoint y="160" as="sourcePoint"/>
                        <mxPoint x="180" y="140" as="targetPoint"/>
                    </mxGeometry>
                </mxCell>
                <mxCell id="68" value="produk_gambar" style="swimlane;fontStyle=0;childLayout=stackLayout;horizontal=1;startSize=26;horizontalStack=0;resizeParent=1;resizeParentMax=0;resizeLast=0;collapsible=1;marginBottom=0;" parent="1" vertex="1">
                    <mxGeometry x="210" y="410" width="210" height="190" as="geometry"/>
                </mxCell>
                <mxCell id="73" value="" style="endArrow=none;html=1;" parent="68" edge="1">
                    <mxGeometry width="50" height="50" relative="1" as="geometry">
                        <mxPoint y="110" as="sourcePoint"/>
                        <mxPoint x="210" y="110" as="targetPoint"/>
                    </mxGeometry>
                </mxCell>
                <mxCell id="69" value="- gambar_id: int&#xa;- produk_id: int&#xa;- file_path: varchar&#xa;- created_at: timestamp&#xa;- updated_at: timestamp" style="text;strokeColor=none;fillColor=none;align=left;verticalAlign=top;spacingLeft=4;spacingRight=4;overflow=hidden;rotatable=0;points=[[0,0.5],[1,0.5]];portConstraint=eastwest;" parent="68" vertex="1">
                    <mxGeometry y="26" width="210" height="84" as="geometry"/>
                </mxCell>
                <mxCell id="72" value="+ uploadImage() &#xa;+ deleteImage() &#xa;+ updateImage() &#xa;+ getImageDetails()&#xa;+ getImageList()" style="text;whiteSpace=wrap;" parent="68" vertex="1">
                    <mxGeometry y="110" width="210" height="80" as="geometry"/>
                </mxCell>
                <mxCell id="79" style="edgeStyle=none;html=1;exitX=0.5;exitY=0;exitDx=0;exitDy=0;entryX=0.496;entryY=1.002;entryDx=0;entryDy=0;entryPerimeter=0;endArrow=none;endFill=0;startArrow=classic;startFill=1;endSize=12;targetPerimeterSpacing=12;sourcePerimeterSpacing=6;" parent="1" source="Produk" target="58" edge="1">
                    <mxGeometry relative="1" as="geometry"/>
                </mxCell>
                <mxCell id="93" style="edgeStyle=orthogonalEdgeStyle;html=1;exitX=0.504;exitY=0.973;exitDx=0;exitDy=0;exitPerimeter=0;entryX=-0.001;entryY=-0.013;entryDx=0;entryDy=0;entryPerimeter=0;elbow=vertical;rounded=0;curved=0;endSize=12;" parent="1" source="Transaksi_Operations" target="Produk_Operations" edge="1">
                    <mxGeometry relative="1" as="geometry">
                        <Array as="points">
                            <mxPoint x="-164" y="479"/>
                            <mxPoint x="-165" y="479"/>
                            <mxPoint x="-165" y="509"/>
                        </Array>
                    </mxGeometry>
                </mxCell>
                <mxCell id="95" style="edgeStyle=orthogonalEdgeStyle;html=1;elbow=vertical;rounded=0;curved=0;endSize=12;" parent="1" source="58" edge="1">
                    <mxGeometry relative="1" as="geometry">
                        <mxPoint x="-154" y="418" as="sourcePoint"/>
                        <mxPoint x="-61" y="330" as="targetPoint"/>
                        <Array as="points">
                            <mxPoint x="-40" y="168"/>
                            <mxPoint x="-40" y="330"/>
                        </Array>
                    </mxGeometry>
                </mxCell>
            </root>
        </mxGraphModel>
    </diagram>
</mxfile>